<svg xmlns="http://www.w3.org/2000/svg" xmlns:v="https://svgstorm.com"
viewBox = "0 0 221 205"
width="256"
height="256">
<g fill="None" fill-opacity="0.0"  stroke-opacity="1.00" stroke-width="0.3"><path d="
M 122.00 161.00
C 131.92 155.47 132.45 144.07 135.01 134.01 C 137.57 123.94 143.96 114.75 144.93 104.07 C 145.89 93.39 138.43 85.43 132.25 77.75 C 126.08 70.06 120.55 63.67 114.23 55.77 C 107.91 47.87 99.96 45.39 92.25 37.75 C 84.54 30.12 74.32 33.60 65.23 29.77 C 56.14 25.94 42.13 28.92 35.25 36.25 C 28.37 43.57 21.60 52.09 21.00 62.00 C 20.40 71.91 25.82 83.84 29.69 92.31 C 33.56 100.77 40.69 108.34 46.25 115.75 C 51.81 123.16 59.44 129.61 65.75 136.25 C 72.07 142.88 77.84 152.44 86.00 153.00
C 80.16 138.54 71.12 129.46 63.92 115.08 C 56.71 100.70 46.41 88.70 49.00 70.00 C 51.59 51.31 73.04 52.40 86.92 60.08 C 100.80 67.76 107.60 75.90 120.75 86.25 C 133.91 96.60 125.73 110.93 118.00 124.00
C 112.60 119.66 107.35 115.18 104.00 109.00
C 85.83 110.35 107.68 91.95 100.23 84.77 C 92.78 77.59 83.45 94.90 81.00 100.00
C 83.73 105.60 84.47 111.90 86.07 117.93 C 87.68 123.95 90.10 128.98 92.23 134.77 C 94.36 140.56 96.75 145.00 99.22 150.78 C 101.69 156.56 100.18 162.55 104.68 168.32 C 109.18 174.09 110.94 175.30 112.01 183.99 C 113.08 192.68 121.50 183.74 120.68 177.68 C 119.86 171.61 128.40 167.21 122.00 161.00 Z"/>
</g>
<g fill="None" fill-opacity="0.0"  stroke-opacity="1.00" stroke-width="0.3"><path d="
M 147.00 154.00
C 155.70 146.88 166.09 140.09 173.70 130.70 C 181.30 121.31 188.02 112.17 193.22 101.22 C 198.42 90.28 202.21 72.10 197.31 60.69 C 192.40 49.29 189.59 36.57 177.08 31.92 C 164.57 27.27 147.24 25.48 135.70 34.70 C 124.16 43.92 114.60 32.38 102.00 30.00
C 105.20 38.69 113.97 42.92 119.23 49.77 C 124.49 56.62 133.49 63.99 141.77 54.77 C 150.05 45.55 156.21 50.64 165.25 55.75 C 174.29 60.86 177.51 69.10 176.00 79.00 C 174.49 88.90 173.20 100.00 169.78 108.78 C 166.35 117.55 159.63 123.45 156.92 131.92 C 154.22 140.40 144.70 146.08 147.00 154.00 Z"/>
</g>
<g  fill-opacity="1.00" stroke="None">
<path d="
M 122.00 161.00
C 131.92 155.47 132.45 144.07 135.01 134.01 C 137.57 123.94 143.96 114.75 144.93 104.07 C 145.89 93.39 138.43 85.43 132.25 77.75 C 126.08 70.06 120.55 63.67 114.23 55.77 C 107.91 47.87 99.96 45.39 92.25 37.75 C 84.54 30.12 74.32 33.60 65.23 29.77 C 56.14 25.94 42.13 28.92 35.25 36.25 C 28.37 43.57 21.60 52.09 21.00 62.00 C 20.40 71.91 25.82 83.84 29.69 92.31 C 33.56 100.77 40.69 108.34 46.25 115.75 C 51.81 123.16 59.44 129.61 65.75 136.25 C 72.07 142.88 77.84 152.44 86.00 153.00
C 80.16 138.54 71.12 129.46 63.92 115.08 C 56.71 100.70 46.41 88.70 49.00 70.00 C 51.59 51.31 73.04 52.40 86.92 60.08 C 100.80 67.76 107.60 75.90 120.75 86.25 C 133.91 96.60 125.73 110.93 118.00 124.00
C 112.60 119.66 107.35 115.18 104.00 109.00
C 85.83 110.35 107.68 91.95 100.23 84.77 C 92.78 77.59 83.45 94.90 81.00 100.00
C 83.73 105.60 84.47 111.90 86.07 117.93 C 87.68 123.95 90.10 128.98 92.23 134.77 C 94.36 140.56 96.75 145.00 99.22 150.78 C 101.69 156.56 100.18 162.55 104.68 168.32 C 109.18 174.09 110.94 175.30 112.01 183.99 C 113.08 192.68 121.50 183.74 120.68 177.68 C 119.86 171.61 128.40 167.21 122.00 161.00 Z"/>
</g>
<g  fill-opacity="1.00" stroke="None">
<path d="
M 147.00 154.00
C 155.70 146.88 166.09 140.09 173.70 130.70 C 181.30 121.31 188.02 112.17 193.22 101.22 C 198.42 90.28 202.21 72.10 197.31 60.69 C 192.40 49.29 189.59 36.57 177.08 31.92 C 164.57 27.27 147.24 25.48 135.70 34.70 C 124.16 43.92 114.60 32.38 102.00 30.00
C 105.20 38.69 113.97 42.92 119.23 49.77 C 124.49 56.62 133.49 63.99 141.77 54.77 C 150.05 45.55 156.21 50.64 165.25 55.75 C 174.29 60.86 177.51 69.10 176.00 79.00 C 174.49 88.90 173.20 100.00 169.78 108.78 C 166.35 117.55 159.63 123.45 156.92 131.92 C 154.22 140.40 144.70 146.08 147.00 154.00 Z"/>
</g>
</svg>